<svg id="Layer_1" data-name="Layer 1" xmlns="http://www.w3.org/2000/svg" xmlns:xlink="http://www.w3.org/1999/xlink" viewBox="0 0 75.01 74.72"><defs><style>.cls-1{fill:url(#linear-gradient);}.cls-2{fill:url(#linear-gradient-2);}.cls-3{fill:url(#linear-gradient-3);}.cls-4{fill:url(#linear-gradient-4);}</style><linearGradient id="linear-gradient" x1="20.78" y1="32.62" x2="34.99" y2="32.62" gradientUnits="userSpaceOnUse"><stop offset="0" stop-color="#4266b0"/><stop offset="1" stop-color="#2bace2"/></linearGradient><linearGradient id="linear-gradient-2" x1="11.24" y1="38.54" x2="28.11" y2="38.54" xlink:href="#linear-gradient"/><linearGradient id="linear-gradient-3" x1="0" y1="43.31" x2="23.69" y2="43.31" xlink:href="#linear-gradient"/><linearGradient id="linear-gradient-4" x1="53.12" y1="3.09" x2="53.12" y2="74.72" xlink:href="#linear-gradient"/></defs><title>favicon</title><path class="cls-1" d="M35,45.33V0a11.07,11.07,0,0,0-5.31,2.94l-8.9,8.91c14.77,35,2.64,53.39,2.64,53.39C30.76,64.2,35,59.23,35,45.33Z"/><path class="cls-2" d="M20.78,11.85l-9.54,9.54c6.51,6.84,9.69,15.78,11.19,23.8a74.87,74.87,0,0,1,1,20S35.55,46.83,20.78,11.85Z"/><path class="cls-3" d="M22.43,45.19c-1.5-8-4.68-17-11.19-23.8l-8,8A11.08,11.08,0,0,0,3.23,45l20.19,20.2A74.87,74.87,0,0,0,22.43,45.19Z"/><path class="cls-4" d="M71.79,29.4l-4.86-4.86L60,17.65l-6.9-6.9L45.48,3.09V46.18c0,15.8-5.7,23.58-14.24,26.61A11.11,11.11,0,0,0,45.33,71.5l7.81-7.81,6.9-6.9,6.89-6.9L71.79,45A11.09,11.09,0,0,0,71.79,29.4Z"/></svg>