<?xml version="1.0" encoding="utf-8"?>
<!-- Generator: Adobe Illustrator 23.0.0, SVG Export Plug-In . SVG Version: 6.00 Build 0)  -->
<svg version="1.1" id="Shape_logo" xmlns="http://www.w3.org/2000/svg" xmlns:xlink="http://www.w3.org/1999/xlink" x="0px" y="0px"
	 viewBox="0 0 348.5 143.9" style="enable-background:new 0 0 348.5 143.9;" xml:space="preserve">
<style type="text/css">
	.st0{fill:url(#SVGID_1_);}
	.st1{fill:url(#SVGID_2_);}
	.st2{fill:url(#SVGID_3_);}
	.st3{fill:url(#SVGID_4_);}
	.st4{fill:#2163E8;}
</style>
<g>
	<linearGradient id="SVGID_1_" gradientUnits="userSpaceOnUse" x1="278.4288" y1="32.6187" x2="292.6459" y2="32.6187">
		<stop  offset="0" style="stop-color:#2163E8"/>
		<stop  offset="1" style="stop-color:#00AEEF"/>
	</linearGradient>
	<path class="st0" d="M292.6,45.3V0c-1.9,0.4-3.8,1.4-5.3,2.9l-8.9,8.9c14.8,35,2.6,53.4,2.6,53.4C288.4,64.2,292.6,59.2,292.6,45.3
		z"/>
	<linearGradient id="SVGID_2_" gradientUnits="userSpaceOnUse" x1="268.8894" y1="38.5415" x2="285.7567" y2="38.5415">
		<stop  offset="0" style="stop-color:#2163E8"/>
		<stop  offset="1" style="stop-color:#00AEEF"/>
	</linearGradient>
	<path class="st1" d="M278.4,11.8l-9.5,9.5c6.5,6.8,9.7,15.8,11.2,23.8c2,10.9,1,20.1,1,20.1S293.2,46.8,278.4,11.8z"/>
	<linearGradient id="SVGID_3_" gradientUnits="userSpaceOnUse" x1="257.6512" y1="43.3112" x2="281.3414" y2="43.3112">
		<stop  offset="0" style="stop-color:#2163E8"/>
		<stop  offset="1" style="stop-color:#00AEEF"/>
	</linearGradient>
	<path class="st2" d="M280.1,45.2c-1.5-8-4.7-17-11.2-23.8l-8,8c-4.3,4.3-4.3,11.3,0,15.6l20.2,20.2
		C281.1,65.2,282.1,56.1,280.1,45.2z"/>
	<linearGradient id="SVGID_4_" gradientUnits="userSpaceOnUse" x1="310.7756" y1="3.0878" x2="310.7756" y2="74.723">
		<stop  offset="0" style="stop-color:#2163E8"/>
		<stop  offset="1" style="stop-color:#00AEEF"/>
	</linearGradient>
	<path class="st3" d="M329.4,29.4l-4.9-4.9l-6.9-6.9l-6.9-6.9l-7.7-7.7v43.1c0,15.8-5.7,23.6-14.2,26.6c4.3,3,10.3,2.5,14.1-1.3
		l7.8-7.8l6.9-6.9l6.9-6.9l4.9-4.9C333.7,40.7,333.7,33.7,329.4,29.4z"/>
</g>
<g>
	<path class="st4" d="M0.1,119.3L0,118.7h14.8l0.1,0.5c0.4,6.5,4.4,11.4,11.9,11.4c8.2,0,12.6-4.9,12.6-14.2V57.4h15.1v59.1
		c0,17.3-10.1,27.4-27.6,27.4C10.4,143.9,0.6,133.9,0.1,119.3z"/>
	<path class="st4" d="M64.8,124.6v-0.1c0-11.1,8.6-17.7,23.7-18.7l16.3-1v-4.3c0-6.3-4.1-10.1-11.5-10.1c-6.9,0-11.2,3.2-12.1,7.8
		l-0.1,0.5H67.5l0.1-0.7C68.4,87,78,78.7,93.9,78.7c15.6,0,25.7,8.2,25.7,20.8v42.9h-14.7v-9.6h-0.4c-3.6,6.5-10.5,10.7-18.8,10.7
		C73.3,143.5,64.8,135.8,64.8,124.6z M90.1,132.3c8.4,0,14.8-5.6,14.8-13v-4.7l-14.3,0.9c-7.2,0.5-11.2,3.6-11.2,8.5v0.1
		C79.4,129.2,83.7,132.3,90.1,132.3z"/>
	<path class="st4" d="M131.3,80H146v10h0.3c2.7-6.8,9.1-11.3,17.3-11.3c8.7,0,15,4.6,17.3,12.6h0.4c3-7.8,10.4-12.6,19.4-12.6
		c12.3,0,20.4,8.4,20.4,20.8v42.9h-14.7v-39.2c0-7.7-4-12.1-11.2-12.1c-7.1,0-11.9,5.2-11.9,12.8v38.6h-14.3v-40
		c0-7-4.2-11.4-11.1-11.4c-7.1,0-12,5.5-12,13.1v38.2h-14.7V80z"/>
	<path class="st4" d="M230.2,111.4L230.2,111.4c0-19.7,11.5-32.7,29.3-32.7c17.8,0,28.9,12.5,28.9,31.4v4.7h-43.7
		c0.2,11,6.2,17.4,15.8,17.4c7.3,0,12.1-3.9,13.5-8.1l0.1-0.4h13.7l-0.2,0.6c-1.9,9.6-11.1,19.3-27.4,19.3
		C241.5,143.7,230.2,131.2,230.2,111.4z M244.9,105h29.3c-1.1-9.9-6.7-14.8-14.5-14.8C251.9,90.2,246.1,95.4,244.9,105z"/>
	<path class="st4" d="M295.2,124.3l-0.1-0.5h14.4l0.1,0.5c1.1,5.4,5.2,8.5,12.6,8.5c7.1,0,11.4-2.9,11.4-7.5v-0.1
		c0-3.8-2.2-5.9-8.7-7.4l-10.4-2.3c-12-2.7-18-8.5-18-17.7v-0.1c0-11.4,10-19.1,25-19.1c15.5,0,24.6,8.5,25.1,19.3l0.1,0.6h-13.7
		l-0.1-0.5c-0.6-5-4.7-8.7-11.5-8.7c-6.5,0-10.5,3-10.5,7.6v0.1c0,3.6,2.4,5.9,8.9,7.4l10.4,2.3c12.9,2.9,17.9,8,17.9,17v0.1
		c0,11.8-10.9,19.7-26.2,19.7C305.9,143.7,296.5,135.9,295.2,124.3z"/>
</g>
</svg>
